<svg width="20" height="20" viewBox="0 0 20 20" fill="none" xmlns="http://www.w3.org/2000/svg">
	<path d="M17.7077 10.0002H7.41185M3.77768 10.0002H2.29102M3.77768 10.0002C3.77768 9.51842 3.96908 9.05635 4.30977 8.71566C4.65046 8.37497 5.11254 8.18357 5.59435 8.18357C6.07616 8.18357 6.53824 8.37497 6.87893 8.71566C7.21962 9.05635 7.41102 9.51842 7.41102 10.0002C7.41102 10.482 7.21962 10.9441 6.87893 11.2848C6.53824 11.6255 6.07616 11.8169 5.59435 11.8169C5.11254 11.8169 4.65046 11.6255 4.30977 11.2848C3.96908 10.9441 3.77768 10.482 3.77768 10.0002ZM17.7077 15.5061H12.9177M12.9177 15.5061C12.9177 15.988 12.7258 16.4506 12.3851 16.7914C12.0443 17.1321 11.5821 17.3236 11.1002 17.3236C10.6184 17.3236 10.1563 17.1313 9.81561 16.7906C9.47491 16.45 9.28352 15.9879 9.28352 15.5061M12.9177 15.5061C12.9177 15.0241 12.7258 14.5624 12.3851 14.2216C12.0443 13.8808 11.5821 13.6894 11.1002 13.6894C10.6184 13.6894 10.1563 13.8808 9.81561 14.2215C9.47491 14.5622 9.28352 15.0243 9.28352 15.5061M9.28352 15.5061H2.29102M17.7077 4.4944H15.1202M11.486 4.4944H2.29102M11.486 4.4944C11.486 4.01259 11.6774 3.55051 12.0181 3.20982C12.3588 2.86913 12.8209 2.67773 13.3027 2.67773C13.5413 2.67773 13.7775 2.72472 13.9979 2.81602C14.2183 2.90732 14.4186 3.04113 14.5873 3.20982C14.756 3.37852 14.8898 3.57878 14.9811 3.79919C15.0724 4.0196 15.1193 4.25583 15.1193 4.4944C15.1193 4.73297 15.0724 4.9692 14.9811 5.18961C14.8898 5.41002 14.756 5.61028 14.5873 5.77898C14.4186 5.94767 14.2183 6.08149 13.9979 6.17278C13.7775 6.26408 13.5413 6.31107 13.3027 6.31107C12.8209 6.31107 12.3588 6.11967 12.0181 5.77898C11.6774 5.43829 11.486 4.97621 11.486 4.4944Z" stroke="#1D110A" stroke-width="1.5" stroke-miterlimit="10" stroke-linecap="round" />
</svg>
