<svg width="25" height="21" viewBox="0 0 25 21" fill="none" xmlns="http://www.w3.org/2000/svg">
  <path d="M24.1573 11.1138L20.7531 2.60319C20.6969 2.46281 20.5927 2.34694 20.459 2.27622C20.3254 2.2055 20.171 2.18452 20.0233 2.21702L13.1393 3.74681V1.1383C13.1393 0.969011 13.072 0.806657 12.9523 0.686953C12.8326 0.567249 12.6702 0.5 12.501 0.5C12.3317 0.5 12.1693 0.567249 12.0496 0.686953C11.9299 0.806657 11.8627 0.969011 11.8627 1.1383V4.03085L4.70308 5.6266C4.60165 5.64913 4.50726 5.69609 4.4281 5.76338C4.34893 5.83068 4.2874 5.91629 4.24883 6.01277L0.844573 14.5234C0.815255 14.5973 0.799749 14.6759 0.798828 14.7553C0.798828 17.0809 3.27862 17.9468 4.84138 17.9468C6.40415 17.9468 8.88393 17.0809 8.88393 14.7553C8.88367 14.6741 8.86815 14.5936 8.83819 14.5181L5.71266 6.70532L11.8627 5.3383V19.2234H9.94776C9.77848 19.2234 9.61612 19.2907 9.49642 19.4104C9.37672 19.5301 9.30947 19.6924 9.30947 19.8617C9.30947 20.031 9.37672 20.1933 9.49642 20.313C9.61612 20.4328 9.77848 20.5 9.94776 20.5H15.0541C15.2234 20.5 15.3858 20.4328 15.5055 20.313C15.6252 20.1933 15.6924 20.031 15.6924 19.8617C15.6924 19.6924 15.6252 19.5301 15.5055 19.4104C15.3858 19.2907 15.2234 19.2234 15.0541 19.2234H13.1393V5.05426L19.119 3.72553L16.1637 11.1138C16.1338 11.1893 16.1182 11.2698 16.118 11.3511C16.118 13.6766 18.5978 14.5426 20.1605 14.5426C21.7233 14.5426 24.2031 13.6766 24.2031 11.3511C24.2028 11.2698 24.1873 11.1893 24.1573 11.1138ZM4.84138 16.6702C4.1909 16.6651 3.5519 16.4984 2.98181 16.1851C2.41053 15.8521 2.11479 15.4213 2.07862 14.8692L4.84457 7.96383L7.61053 14.8692C7.50734 16.3351 5.54138 16.6702 4.84138 16.6702ZM20.1605 13.266C19.5101 13.2608 18.871 13.0941 18.301 12.7809C17.7297 12.4479 17.4339 12.017 17.3978 11.4649L20.1637 4.55958L22.9297 11.4649C22.8265 12.9309 20.8605 13.266 20.1605 13.266Z" fill="#F0ECE9" />
</svg>